<?xml version="1.0" encoding="UTF-8"?>
<svg xmlns="http://www.w3.org/2000/svg" width="470" height="160" viewBox="0 0 94 32" title="AirHelp logo">
  <!-- Rounded blue triangle -->
  <path d="M89.3909 10.8515H82.8654C82.6243 10.8519 82.3867 10.7941 82.1727 10.6832C81.9587 10.5722 81.7746 10.4113 81.636 10.2141C81.4974 10.0169 81.4083 9.78924 81.3763 9.55032C81.3444 9.31139 81.3705 9.06829 81.4524 8.84159L84.243 1.2646C84.3789 0.89579 84.6241 0.577207 84.9458 0.351362C85.2675 0.125516 85.6504 0.00314918 86.0434 0.000590284C86.4365 -0.00196861 86.821 0.115402 87.1456 0.33704C87.4702 0.558678 87.7195 0.874041 87.8602 1.24105L90.7826 8.81804C90.8705 9.04429 90.9019 9.28855 90.874 9.52967C90.8462 9.77078 90.76 10.0015 90.6229 10.2018C90.4859 10.4021 90.302 10.5659 90.0873 10.6791C89.8726 10.7923 89.6336 10.8515 89.3909 10.8515Z" fill="#0D73FF" />
  <!-- Rounded red triangle -->
  <path d="M89.3697 2.78943C89.0843 2.79129 88.8029 2.85601 88.5454 2.979L90.7826 8.80628C90.8706 9.03272 90.9019 9.27719 90.874 9.51849C90.846 9.75979 90.7596 9.99063 90.6223 10.191C90.4849 10.3913 90.3008 10.5551 90.0858 10.6682C89.8708 10.7813 89.6314 10.8401 89.3885 10.8398H85.0519L84.7681 11.6204C84.6853 11.847 84.6585 12.0904 84.6901 12.3296C84.7217 12.5688 84.8107 12.7968 84.9495 12.9942C85.0883 13.1915 85.2729 13.3523 85.4873 13.4629C85.7018 13.5735 85.9398 13.6305 86.1811 13.6292H92.7066C92.9494 13.6295 93.1885 13.5706 93.4034 13.4576C93.6183 13.3446 93.8024 13.1809 93.9397 12.9807C94.077 12.7805 94.1635 12.5499 94.1915 12.3087C94.2196 12.0676 94.1884 11.8233 94.1007 11.5969L91.1759 4.0187C91.0299 3.65834 90.7804 3.34928 90.459 3.13051C90.1375 2.91174 89.7585 2.79306 89.3697 2.78943Z" fill="#FF6B73" />
  <!-- Intersection -->
  <path d="M88.5455 2.979C88.0885 3.1967 87.733 3.58215 87.5529 4.05521L85.0578 10.8398H89.3968C89.639 10.8388 89.8773 10.7789 90.0912 10.6653C90.3052 10.5517 90.4882 10.3877 90.6246 10.1876C90.761 9.98743 90.8467 9.7571 90.8742 9.51645C90.9018 9.2758 90.8703 9.03207 90.7826 8.80628L88.5455 2.979Z" fill="#0D3073" />
  <g fill="#0D3073">
    <!-- Letter 'A' -->
    <path d="M12.2351 24.1028H4.65806L3.45233 27.5786H0L6.22997 10.178H10.7338L16.9638 27.5786H13.4055L12.2351 24.1028ZM11.253 21.2545L10.5678 19.2445C9.81183 17.0344 9.01939 14.8596 8.44008 12.8262C7.85135 14.8596 7.06951 17.0933 6.3124 19.2916L5.65184 21.2545H11.253Z" />
    <!-- Letter 'i' -->
    <path d="M18.3108 11.7029C18.3059 11.3276 18.4127 10.9593 18.6177 10.6448C18.8226 10.3304 19.1165 10.084 19.4618 9.93707C19.8072 9.79009 20.1885 9.74914 20.5571 9.81943C20.9258 9.88972 21.2653 10.0681 21.5324 10.3318C21.7994 10.5955 21.982 10.9327 22.0569 11.3005C22.1318 11.6683 22.0957 12.0501 21.953 12.3972C21.8104 12.7444 21.5677 13.0413 21.2559 13.2502C20.944 13.4591 20.5771 13.5705 20.2018 13.5703C19.9547 13.5731 19.7094 13.5269 19.4803 13.4343C19.2511 13.3418 19.0426 13.2047 18.8667 13.031C18.6909 12.8574 18.5512 12.6506 18.4558 12.4226C18.3604 12.1946 18.3111 11.95 18.3108 11.7029ZM21.7984 27.5786H18.604V15.048H21.7961L21.7984 27.5786Z" />
    <!-- Letter 'r' -->
    <path d="M32.1884 15.2729L31.6208 18.0388C31.1019 17.8879 30.5657 17.8044 30.0254 17.7904C28.3345 17.7904 27.2831 19.1386 27.2831 21.3958V27.5786H24.0909V15.048H27.0582V16.8919C27.6469 15.6862 28.6536 14.9067 30.1914 14.9067C30.8885 14.9067 31.4207 15.0598 32.1884 15.2729Z" />
    <!-- Letter 'H' -->
    <path d="M48.3126 27.5786H44.885V19.8827H37.1067V27.5786H33.6755V10.178H37.1043V16.9991H44.885V10.178H48.3126V27.5786Z" />
    <!-- Letter 'e' -->
    <path d="M60.4405 23.5599L62.2255 25.5216C60.3934 27.389 58.6672 27.9684 56.6349 27.9684C52.5915 27.9684 50.0623 25.3685 50.0623 21.3745C50.0623 17.4972 52.4172 14.6371 56.3629 14.6371C60.1815 14.6371 62.2255 17.0368 62.2255 20.8906C62.2255 21.2804 62.202 21.8714 62.1784 22.1434H53.1826C53.4546 23.952 54.5308 25.2755 56.715 25.2755C58.1951 25.2731 58.9746 24.7892 60.4405 23.5599ZM53.265 19.8591H59.1288C59.0111 18.193 58.029 17.1404 56.2805 17.1404C54.5897 17.1404 53.6088 18.2401 53.265 19.8591Z" />
    <!-- Letter 'l' -->
    <path d="M67.4511 27.5786H64.272V10.178H67.4511V27.5786Z" />
    <!-- Letter 'p' -->
    <path d="M82.1872 21.3121C82.1872 25.3791 79.811 27.9319 76.6189 27.9319C74.9293 27.9319 73.7 27.3431 72.8722 26.2893V31.9988H69.6848V15.0598H72.6497V16.7082C73.4892 15.4542 74.7774 14.6983 76.6448 14.6983C79.8322 14.6936 82.1872 17.2581 82.1872 21.3121ZM78.9479 21.3121C78.9479 18.9572 77.7893 17.4347 75.9101 17.4347C74.0662 17.4347 72.7415 18.9007 72.7415 21.3121C72.7415 23.7589 74.1133 25.166 75.8748 25.166C77.6998 25.1554 78.9527 23.6894 78.9527 21.3121H78.9479Z" />
  </g>
</svg>
